<svg xmlns="http://www.w3.org/2000/svg" viewBox="0 0 245.72 51.51"><defs><style>.cls-1{fill:#fff;}.cls-2{fill:#f37421;}</style></defs><title>Asset 11</title><g id="Layer_2" data-name="Layer 2"><g id="Layer_1-2" data-name="Layer 1"><path class="cls-1" d="M0,8.4H6.15V22.93H22.83V8.4H29v35H22.83V28.63H6.15V43.37H0Z"/><path class="cls-1" d="M35.83,30.28v-.1c0-7.55,5.34-13.74,12.89-13.74,8.39,0,12.64,6.59,12.64,14.19,0,.55,0,1.1-.1,1.7H41.87A7.37,7.37,0,0,0,49.47,39a9.58,9.58,0,0,0,7.14-3.15l3.63,3.06a13.57,13.57,0,0,1-10.87,5C41.72,44,35.83,38.42,35.83,30.28Zm19.53-2c-.4-3.9-2.7-6.95-6.69-6.95-3.7,0-6.3,2.85-6.85,7Z"/><path class="cls-1" d="M65.31,39.92,68,35.83a14.94,14.94,0,0,0,8.64,3.24c2.6,0,4.1-1.1,4.1-2.85v-.09c0-2.05-2.8-2.75-5.9-3.7-3.9-1.1-8.24-2.7-8.24-7.75v-.1c0-5,4.14-8,9.39-8a18.27,18.27,0,0,1,9.69,3l-2.4,4.29a15.23,15.23,0,0,0-7.44-2.49c-2.35,0-3.7,1.09-3.7,2.59V24c0,1.95,2.85,2.75,5.95,3.75,3.85,1.2,8.19,2.95,8.19,7.7v.09c0,5.55-4.3,8.3-9.79,8.3A18.5,18.5,0,0,1,65.31,39.92Z"/><path class="cls-1" d="M90.74,35.78v-.1c0-5.7,4.45-8.5,10.89-8.5a22.05,22.05,0,0,1,7.1,1.1v-.65c0-3.75-2.3-5.75-6.55-5.75a18.33,18.33,0,0,0-7.54,1.65L93,18.79A22.48,22.48,0,0,1,103,16.64c4,0,6.9,1.05,8.74,2.95s2.85,4.69,2.85,8.14V43.37h-5.89v-3.3a10.73,10.73,0,0,1-8.6,3.85C95.14,43.92,90.74,41.07,90.74,35.78Zm18.09-1.9v-1.8a16.77,16.77,0,0,0-6-1c-3.9,0-6.19,1.65-6.19,4.39v.11c0,2.54,2.24,4,5.14,4C105.78,39.52,108.83,37.22,108.83,33.88Z"/><path class="cls-1" d="M127.87,39.27v4.1h-6.05V8.11h6.05V21.38a10.55,10.55,0,0,1,9-4.94c6.19,0,12.24,4.9,12.24,13.69v.1c0,8.74-6,13.69-12.24,13.69A10.75,10.75,0,0,1,127.87,39.27Zm15.09-9v-.1c0-5.1-3.45-8.45-7.55-8.45s-7.69,3.4-7.69,8.45v.1c0,5.05,3.59,8.44,7.69,8.44S143,35.42,143,30.23Z"/><path class="cls-2" d="M187.48,36v-.11c0-5.29,4.54-8.29,11.14-8.29a30.6,30.6,0,0,1,8.44,1.1v-1.1c0-5.15-3.14-7.79-8.39-7.79a17.2,17.2,0,0,0-8,2l-.9-2.14a20.49,20.49,0,0,1,9-2.2c3.45,0,6.19,1,8,2.8a9.64,9.64,0,0,1,2.6,7.19V43.37h-2.4V39.12A11.58,11.58,0,0,1,197.32,44C192.57,44,187.48,41.27,187.48,36Zm19.63-2.15v-2.9a33.72,33.72,0,0,0-8.64-1.15c-5.4,0-8.4,2.4-8.4,5.94v.11c0,3.69,3.5,5.84,7.4,5.84C202.67,41.67,207.11,38.47,207.11,33.83Z"/><path class="cls-2" d="M238.19,17.89h2.7l-11,26.38c-2.25,5.34-4.85,7.24-8.5,7.24a11.43,11.43,0,0,1-5-1.1l.85-2.14a8.87,8.87,0,0,0,4.34.95c2.65,0,4.4-1.55,6.3-6L215.56,17.89h2.85L229,40.67Z"/><path class="cls-2" d="M169.44,8.4H156.75v2.39h12.49c6.29,0,10.59,2.9,10.59,8.45v.1c0,5.19-4.4,8.59-10.89,8.59H156.75V43.37h2.6v-13h9.44c7.29,0,13.64-3.8,13.64-11.14v-.1C182.43,12.34,177.13,8.4,169.44,8.4Z"/><path class="cls-1" d="M186.22,0h1.47V8.4h-1.47Z"/><path class="cls-1" d="M191.51,6.64V3.31h-.8V2.06h.8V.32H193V2.06h1.7V3.31H193V6.42a.69.69,0,0,0,.78.79,1.9,1.9,0,0,0,.9-.22V8.18a2.56,2.56,0,0,1-1.31.32A1.62,1.62,0,0,1,191.51,6.64Z"/><path class="cls-1" d="M197.22,2.77c.73-.13,1.08-.5,1-1.13h-.62V0h1.59V1.4a1.74,1.74,0,0,1-1.84,2Z"/><path class="cls-1" d="M201.58,7.57l.64-1a3.57,3.57,0,0,0,2.08.78c.62,0,1-.26,1-.68v0c0-.5-.67-.66-1.41-.89-.94-.27-2-.65-2-1.86v0A2,2,0,0,1,204.14,2a4.42,4.42,0,0,1,2.33.71l-.58,1a3.59,3.59,0,0,0-1.78-.6c-.57,0-.89.26-.89.62v0c0,.47.68.66,1.43.9.92.29,2,.71,2,1.85v0c0,1.34-1,2-2.35,2A4.45,4.45,0,0,1,201.58,7.57Z"/><path class="cls-1" d="M214.75,0H221V1.32h-4.75V3.5h4.21V4.82h-4.21V7.08H221V8.4h-6.29Z"/><path class="cls-1" d="M223.64,6.57v0c0-1.37,1.07-2,2.62-2a5.43,5.43,0,0,1,1.7.26V4.62c0-.9-.55-1.38-1.57-1.38a4.41,4.41,0,0,0-1.81.39l-.38-1.14A5.41,5.41,0,0,1,226.58,2a2.81,2.81,0,0,1,2.1.71,2.6,2.6,0,0,1,.69,1.95V8.4H228V7.6a2.56,2.56,0,0,1-2.06.93A2,2,0,0,1,223.64,6.57ZM228,6.12V5.69a3.94,3.94,0,0,0-1.44-.26c-.94,0-1.49.4-1.49,1.06v0c0,.61.54,1,1.24,1C227.25,7.47,228,6.92,228,6.12Z"/><path class="cls-1" d="M232,7.57l.65-1a3.57,3.57,0,0,0,2.07.78c.63,0,1-.26,1-.68v0c0-.5-.67-.66-1.42-.89-.93-.27-2-.65-2-1.86v0A2,2,0,0,1,234.6,2a4.39,4.39,0,0,1,2.32.71l-.57,1a3.59,3.59,0,0,0-1.79-.6c-.56,0-.89.26-.89.62v0c0,.47.69.66,1.43.9.93.29,2,.71,2,1.85v0c0,1.34-1,2-2.35,2A4.48,4.48,0,0,1,232,7.57Z"/><path class="cls-1" d="M244.21,2.06h1.51L243.2,8.58c-.5,1.29-1.07,1.77-2.08,1.77a3,3,0,0,1-1.5-.38l.49-1.08a1.81,1.81,0,0,0,.85.24c.41,0,.66-.18.9-.72l-2.64-6.35h1.56l1.79,4.7Z"/></g></g></svg>